<svg width="1248" height="637" viewBox="0 0 1248 637" fill="none" xmlns="http://www.w3.org/2000/svg">
<path d="M35.8825 73.2C35.8825 72.0267 35.5625 70.9867 34.9225 70.08C34.2825 69.12 33.4825 68.1867 32.5225 67.28C31.5625 66.3733 30.4958 65.4933 29.3225 64.64C28.2025 63.7333 27.1625 62.72 26.2025 61.6C25.2425 60.48 24.4425 59.2533 23.8025 57.92C23.1625 56.5333 22.8425 54.9333 22.8425 53.12C22.8425 49.0667 24.2825 46.0533 27.1625 44.08C30.0958 42.0533 34.0692 41.04 39.0825 41.04C39.9358 41.04 40.8692 41.0933 41.8825 41.2C42.9492 41.2533 44.0158 41.3867 45.0825 41.6C46.1492 41.8133 47.1625 42.08 48.1225 42.4C49.1358 42.6667 50.0425 43.04 50.8425 43.52C50.8958 44.1067 50.8425 44.88 50.6825 45.84C50.5758 46.7467 50.3358 47.68 49.9625 48.64C49.6425 49.5467 49.1892 50.4 48.6025 51.2C48.0692 51.9467 47.4025 52.4533 46.6025 52.72L40.2025 45.6C38.4958 45.6 37.0558 45.9467 35.8825 46.64C34.7625 47.3333 34.2025 48.56 34.2025 50.32C34.2025 51.4933 34.5225 52.56 35.1625 53.52C35.8558 54.48 36.6825 55.4133 37.6425 56.32C38.6025 57.1733 39.6692 58.0533 40.8425 58.96C42.0158 59.8667 43.0825 60.88 44.0425 62C45.0025 63.0667 45.8025 64.2933 46.4425 65.68C47.1358 67.0667 47.4825 68.6667 47.4825 70.48C47.4825 72.5067 47.0292 74.2933 46.1225 75.84C45.2158 77.3867 43.9625 78.6933 42.3625 79.76C40.8158 80.8267 38.9492 81.6267 36.7625 82.16C34.5758 82.6933 32.2025 82.96 29.6425 82.96C26.9225 82.96 24.4692 82.64 22.2825 82C20.1492 81.4133 18.5492 80.7467 17.4825 80C17.4292 78.2933 17.7225 76.6133 18.3625 74.96C19.0558 73.3067 20.0425 72.0267 21.3225 71.12L29.0825 78.4C30.8425 78.4 32.4158 77.9733 33.8025 77.12C35.1892 76.2667 35.8825 74.96 35.8825 73.2ZM54.4138 66.64C54.4138 63.76 54.8938 60.8267 55.8538 57.84C56.8138 54.8 58.2804 52.0533 60.2538 49.6C62.2271 47.0933 64.7071 45.04 67.6938 43.44C70.7338 41.84 74.2804 41.04 78.3338 41.04C83.1338 41.04 86.8938 42.3467 89.6138 44.96C92.3338 47.5733 93.6938 51.4667 93.6938 56.64C93.6938 60.16 93.1604 63.52 92.0938 66.72C91.0271 69.8667 89.4804 72.6667 87.4538 75.12C85.4271 77.52 82.9471 79.44 80.0138 80.88C77.1338 82.2667 73.8271 82.96 70.0938 82.96C67.8538 82.96 65.7738 82.64 63.8537 82C61.9338 81.3067 60.2538 80.2933 58.8138 78.96C57.4271 77.5733 56.3338 75.8667 55.5338 73.84C54.7871 71.8133 54.4138 69.4133 54.4138 66.64ZM76.9738 45.6C74.8404 45.6 73.0538 46.4 71.6138 48C70.2271 49.6 69.0804 51.6267 68.1738 54.08C67.3204 56.48 66.7071 59.0933 66.3338 61.92C65.9604 64.7467 65.7738 67.36 65.7738 69.76C65.7738 72.48 66.2804 74.6133 67.2938 76.16C68.3604 77.6533 69.8004 78.4 71.6138 78.4C73.1604 78.4 74.5738 77.76 75.8538 76.48C77.1871 75.1467 78.3338 73.3867 79.2938 71.2C80.2538 68.96 81.0004 66.4267 81.5338 63.6C82.0671 60.72 82.3338 57.7333 82.3338 54.64C82.3338 51.7067 81.8538 49.4667 80.8938 47.92C79.9871 46.3733 78.6804 45.6 76.9738 45.6ZM108.24 28.48L102.8 27.44V24.72C103.547 24.4 104.56 24.08 105.84 23.76C107.12 23.44 108.507 23.1467 110 22.88C111.493 22.56 113.013 22.32 114.56 22.16C116.16 21.9467 117.627 21.84 118.96 21.84L120.56 22.72L110.08 76.48H115.76V79.2C115.227 79.6267 114.507 80.0533 113.6 80.48C112.693 80.9067 111.68 81.28 110.56 81.6C109.493 81.92 108.373 82.1867 107.2 82.4C106.027 82.6133 104.907 82.72 103.84 82.72C102.027 82.72 100.693 82.3467 99.84 81.6C99.04 80.8 98.64 79.9467 98.64 79.04C98.64 77.9733 98.72 76.9333 98.88 75.92C99.04 74.9067 99.2533 73.7867 99.52 72.56L108.24 28.48ZM163.586 76.48V79.2C163.053 79.6267 162.333 80.0533 161.426 80.48C160.573 80.9067 159.613 81.28 158.546 81.6C157.533 81.92 156.44 82.1867 155.266 82.4C154.146 82.6133 153.026 82.72 151.906 82.72C149.986 82.72 148.653 82.3467 147.906 81.6C147.213 80.8 146.866 79.9733 146.866 79.12C146.866 78.16 146.973 76.8267 147.186 75.12C147.4 73.4133 147.826 71.44 148.466 69.2H148.146C147.453 70.48 146.573 71.92 145.506 73.52C144.44 75.12 143.186 76.64 141.746 78.08C140.306 79.4667 138.653 80.64 136.786 81.6C134.92 82.5067 132.866 82.96 130.626 82.96C128.44 82.96 126.653 82.32 125.266 81.04C123.933 79.7067 123.266 77.84 123.266 75.44C123.266 74.2667 123.426 72.5867 123.746 70.4C124.12 68.2133 124.546 65.84 125.026 63.28C125.56 60.6667 126.12 58 126.706 55.28C127.346 52.5067 127.906 49.9733 128.386 47.68L123.666 46.64V43.92C124.52 43.6 125.586 43.28 126.866 42.96C128.146 42.64 129.48 42.3467 130.866 42.08C132.253 41.8133 133.666 41.6 135.106 41.44C136.546 41.2267 137.853 41.0933 139.026 41.04L140.786 42C139.933 46 139.053 49.8133 138.146 53.44C137.293 57.0133 136.493 60.8 135.746 64.8C135.48 66.08 135.186 67.4933 134.866 69.04C134.6 70.5867 134.466 72.1333 134.466 73.68C134.466 74.64 134.706 75.36 135.186 75.84C135.72 76.32 136.36 76.56 137.106 76.56C138.44 76.56 139.746 76.0533 141.026 75.04C142.36 73.9733 143.56 72.72 144.626 71.28C145.746 69.7867 146.706 68.2667 147.506 66.72C148.36 65.1733 148.973 63.8933 149.346 62.88L153.506 42H164.306L157.986 76.48H163.586ZM199.663 73.28C198.97 74.4 198.063 75.5467 196.943 76.72C195.823 77.8933 194.516 78.9333 193.023 79.84C191.583 80.7467 189.983 81.4933 188.223 82.08C186.463 82.6667 184.596 82.96 182.623 82.96C178.41 82.96 175.05 81.7067 172.543 79.2C170.09 76.6933 168.863 73.2 168.863 68.72C168.863 64.9867 169.423 61.44 170.543 58.08C171.716 54.72 173.343 51.7867 175.423 49.28C177.503 46.72 180.01 44.72 182.943 43.28C185.93 41.7867 189.236 41.04 192.863 41.04C195.263 41.04 197.343 41.3067 199.103 41.84C200.916 42.32 202.116 42.9067 202.703 43.6C202.756 44.1867 202.65 44.9333 202.383 45.84C202.17 46.6933 201.823 47.5733 201.343 48.48C200.863 49.3333 200.276 50.16 199.583 50.96C198.943 51.7067 198.276 52.24 197.583 52.56L192.703 45.6C191.263 45.6 189.796 46.1067 188.303 47.12C186.863 48.08 185.556 49.4933 184.383 51.36C183.21 53.1733 182.25 55.3867 181.503 58C180.756 60.56 180.383 63.4667 180.383 66.72C180.383 69.9733 181.05 72.3733 182.383 73.92C183.716 75.4133 185.503 76.16 187.743 76.16C188.81 76.16 189.823 76 190.783 75.68C191.796 75.3067 192.73 74.88 193.583 74.4C194.436 73.92 195.21 73.4133 195.903 72.88C196.65 72.2933 197.29 71.76 197.823 71.28L199.663 73.28ZM227.528 78.4C226.035 75.84 224.835 73.3067 223.928 70.8C223.075 68.2933 222.248 65.92 221.448 63.68L218.808 62.88L215.208 82H204.008L214.648 28.48L209.288 27.44V24.72C210.035 24.4 211.021 24.08 212.248 23.76C213.475 23.3867 214.808 23.0667 216.248 22.8C217.688 22.5333 219.181 22.32 220.728 22.16C222.328 21.9467 223.875 21.84 225.368 21.84L227.048 22.72L219.608 59.36H222.168C223.075 58.6667 224.008 57.84 224.968 56.88C225.928 55.92 226.835 54.96 227.688 54C228.541 53.04 229.288 52.1067 229.928 51.2C230.621 50.24 231.155 49.44 231.528 48.8C231.581 48.4267 231.608 47.92 231.608 47.28C231.661 46.64 231.661 46 231.608 45.36C231.608 44.6667 231.581 44.0267 231.528 43.44C231.528 42.8 231.501 42.32 231.448 42C232.355 41.68 233.501 41.44 234.888 41.28C236.275 41.0667 237.688 40.96 239.128 40.96C240.568 40.96 241.901 41.0667 243.128 41.28C244.408 41.44 245.341 41.68 245.928 42C245.235 43.76 244.195 45.4933 242.808 47.2C241.475 48.9067 240.008 50.5067 238.408 52C236.861 53.4933 235.315 54.8533 233.768 56.08C232.275 57.2533 231.048 58.1867 230.088 58.88C230.461 59.8933 231.021 61.1733 231.768 62.72C232.568 64.2667 233.448 65.8933 234.408 67.6C235.368 69.2533 236.381 70.88 237.448 72.48C238.515 74.0267 239.501 75.36 240.408 76.48H244.728V79.2C244.195 79.6267 243.501 80.0533 242.648 80.48C241.848 80.9067 240.968 81.28 240.008 81.6C239.048 81.92 238.061 82.1867 237.048 82.4C236.035 82.6133 235.048 82.72 234.088 82.72C232.808 82.72 231.608 82.4267 230.488 81.84C229.421 81.2533 228.435 80.1067 227.528 78.4ZM251.213 47.68L246.093 47.04V44.32C246.36 44.1067 246.893 43.84 247.693 43.52C248.493 43.1467 249.426 42.7733 250.493 42.4C251.613 42.0267 252.786 41.7067 254.013 41.44C255.24 41.1733 256.44 41.04 257.613 41.04C259.053 41.04 260.173 41.3867 260.973 42.08C261.773 42.7733 262.306 43.7333 262.573 44.96L268.733 69.2L269.133 74H269.293L270.973 69.28C272.04 66.72 273.08 63.9733 274.093 61.04C275.106 58.0533 275.906 55.28 276.493 52.72C276.493 52.1333 276.386 51.3333 276.173 50.32C276.013 49.2533 275.826 48.1867 275.613 47.12C275.4 46 275.186 44.9867 274.973 44.08C274.76 43.12 274.6 42.48 274.493 42.16C275.24 41.84 276.173 41.6 277.293 41.44C278.413 41.28 279.533 41.2 280.653 41.2C281.773 41.2 282.813 41.28 283.773 41.44C284.733 41.6 285.506 41.84 286.093 42.16C284.706 48.5067 282.573 55.0933 279.693 61.92C276.866 68.7467 273.586 75.44 269.853 82C266.76 87.4933 263.666 91.6533 260.573 94.48C257.533 97.3067 254.013 98.72 250.013 98.72C248.893 98.72 247.853 98.56 246.893 98.24C245.986 97.9733 245.16 97.6 244.413 97.12C244.253 96.3733 244.306 95.4933 244.573 94.48C244.84 93.4667 245.213 92.48 245.693 91.52C246.226 90.56 246.84 89.68 247.533 88.88C248.226 88.08 248.946 87.5467 249.693 87.28L255.693 91.52C256.066 91.2533 256.546 90.8533 257.133 90.32C257.72 89.84 258.306 89.2 258.893 88.4C259.48 87.6533 260.066 86.7467 260.653 85.68C261.24 84.6133 261.773 83.3867 262.253 82L251.213 47.68Z" fill="#030303"/>
<path d="M234.25 224C235.417 218.633 236.7 212.917 238.1 206.85C239.5 200.55 240.2 195.65 240.2 192.15C240.2 187.717 239.383 184.217 237.75 181.65C236.35 179.083 233.667 177.8 229.7 177.8C225.733 177.8 221.65 179.317 217.45 182.35C213.25 185.15 209.167 189 205.2 193.9C201.233 198.567 197.383 203.933 193.65 210C190.15 216.067 187 222.25 184.2 228.55L161.45 329H114.55L135.9 230.65C137.533 223.417 138.933 216.417 140.1 209.65C141.267 202.883 141.85 196.583 141.85 190.75C141.85 182.117 138.583 177.8 132.05 177.8C128.783 177.8 125.05 179.317 120.85 182.35C116.65 185.383 112.45 189.35 108.25 194.25C104.05 198.917 100.083 204.283 96.35 210.35C92.6167 216.417 89.7 222.6 87.6 228.9L67.3 329H18.3L49.45 178.85L29.5 174.3V162.4C33.2333 160.533 37.7833 158.783 43.15 157.15C48.75 155.517 54.5833 154.233 60.65 153.3C66.7167 152.133 72.9 151.317 79.2 150.85C85.5 150.15 91.3333 149.8 96.7 149.8L104.05 154L90.4 205.1H91.8C95.3 198.8 99.5 192.383 104.4 185.85C109.533 179.083 115.25 173.133 121.55 168C127.85 162.633 134.617 158.317 141.85 155.05C149.083 151.55 156.433 149.8 163.9 149.8C166.7 149.8 169.617 150.267 172.65 151.2C175.683 152.133 178.483 153.883 181.05 156.45C183.85 158.783 186.067 162.05 187.7 166.25C189.333 170.45 190.15 175.817 190.15 182.35C190.15 185.617 189.8 189.35 189.1 193.55C188.633 197.75 187.933 201.6 187 205.1C190.967 197.867 195.633 190.867 201 184.1C206.367 177.333 212.083 171.5 218.15 166.6C224.45 161.467 230.983 157.383 237.75 154.35C244.75 151.317 251.983 149.8 259.45 149.8C268.317 149.8 275.55 152.6 281.15 158.2C286.75 163.8 289.55 171.5 289.55 181.3C289.55 188.767 288.85 195.883 287.45 202.65C286.05 209.417 284.533 216.533 282.9 224L262.95 304.85H287.45V316.75C285.117 318.617 281.85 320.483 277.65 322.35C273.683 324.217 269.367 325.85 264.7 327.25C260.033 328.65 255.25 329.817 250.35 330.75C245.45 331.683 240.9 332.15 236.7 332.15C228.3 332.15 222.467 330.517 219.2 327.25C215.933 323.75 214.3 319.9 214.3 315.7C214.3 308.933 215.933 299.6 219.2 287.7L234.25 224ZM380.771 305.2C385.205 305.2 389.755 303.217 394.421 299.25C399.321 295.283 403.871 290.383 408.071 284.55C412.505 278.483 416.471 271.95 419.971 264.95C423.705 257.717 426.855 251.067 429.421 245L442.371 175.7C439.571 173.833 436.888 172.55 434.321 171.85C431.988 170.917 428.838 170.45 424.871 170.45C415.538 170.45 407.138 173.6 399.671 179.9C392.205 185.967 385.905 194.017 380.771 204.05C375.638 213.85 371.671 224.933 368.871 237.3C366.305 249.667 365.021 262.033 365.021 274.4C365.021 285.133 366.305 292.95 368.871 297.85C371.438 302.75 375.405 305.2 380.771 305.2ZM424.171 273.35C421.138 280.817 417.288 288.167 412.621 295.4C408.188 302.4 403.055 308.7 397.221 314.3C391.388 319.9 384.971 324.45 377.971 327.95C370.971 331.45 363.388 333.2 355.221 333.2C343.088 333.2 333.405 328.767 326.171 319.9C318.938 311.033 315.321 297.85 315.321 280.35C315.321 262.15 317.771 245.233 322.671 229.6C327.805 213.733 334.921 199.967 344.021 188.3C353.355 176.4 364.555 167.183 377.621 160.65C390.688 153.883 405.271 150.5 421.371 150.5C427.438 150.5 432.571 151.2 436.771 152.6C441.205 154 445.871 155.75 450.771 157.85C456.838 155.517 463.371 153.767 470.371 152.6C477.371 151.433 485.772 150.85 495.571 150.85L466.171 304.85H490.671V316.75C488.338 318.617 485.188 320.483 481.221 322.35C477.488 324.217 473.288 325.85 468.621 327.25C464.188 328.65 459.521 329.817 454.621 330.75C449.955 331.683 445.521 332.15 441.321 332.15C433.155 332.15 427.321 330.4 423.821 326.9C420.321 323.4 418.571 319.783 418.571 316.05C418.571 311.85 419.155 306.367 420.321 299.6C421.488 292.6 423.238 283.85 425.571 273.35H424.171ZM605.638 149.8C618.938 149.8 629.788 151.317 638.188 154.35C646.822 157.383 653.122 160.533 657.088 163.8C659.422 161.7 662.572 159.6 666.538 157.5C670.505 155.167 674.705 153.067 679.138 151.2C683.805 149.1 688.355 147.233 692.788 145.6C697.455 143.967 701.655 142.567 705.388 141.4C706.555 143.5 707.255 146.3 707.488 149.8C707.955 153.3 707.955 156.917 707.488 160.65C707.255 164.15 706.555 167.533 705.388 170.8C704.222 174.067 702.705 176.75 700.838 178.85L666.188 175C667.355 176.867 668.288 179.317 668.988 182.35C669.922 185.383 670.388 188.767 670.388 192.5C670.388 200.9 668.405 208.95 664.438 216.65C660.472 224.117 654.638 230.65 646.938 236.25C639.472 241.85 630.372 246.4 619.638 249.9C609.138 253.167 597.238 254.8 583.938 254.8C579.972 254.8 576.705 254.8 574.138 254.8C571.805 254.567 569.122 254.1 566.088 253.4C564.922 254.333 563.522 255.383 561.888 256.55C560.488 257.483 558.972 258.533 557.338 259.7C555.938 260.867 554.655 262.267 553.488 263.9C552.555 265.3 552.088 266.933 552.088 268.8C552.088 272.3 555.005 274.983 560.838 276.85C566.672 278.717 573.905 280.35 582.538 281.75C591.172 283.15 600.622 284.783 610.888 286.65C621.155 288.517 630.605 291.2 639.238 294.7C647.872 298.2 655.105 302.983 660.938 309.05C666.772 314.883 669.688 322.7 669.688 332.5C669.688 343.233 666.188 352.917 659.188 361.55C652.422 370.183 643.438 377.533 632.238 383.6C621.272 389.9 608.788 394.683 594.788 397.95C581.022 401.45 567.022 403.2 552.788 403.2C541.122 403.2 530.855 402.033 521.988 399.7C513.122 397.6 505.772 394.567 499.938 390.6C493.872 386.867 489.438 382.55 486.638 377.65C483.605 372.75 482.088 367.617 482.088 362.25C482.088 350.117 487.338 339.85 497.838 331.45C508.338 323.283 521.638 316.517 537.738 311.15C531.672 308.583 526.772 305.55 523.038 302.05C519.538 298.317 517.788 293.65 517.788 288.05C517.788 284.55 518.838 280.933 520.938 277.2C523.038 273.467 525.722 269.85 528.988 266.35C532.255 262.85 535.872 259.7 539.838 256.9C543.805 253.867 547.772 251.417 551.738 249.55C548.238 248.85 544.505 247.45 540.538 245.35C536.805 243.25 533.305 240.683 530.038 237.65C527.005 234.383 524.438 230.65 522.338 226.45C520.238 222.017 519.188 217.35 519.188 212.45C519.188 203.35 521.172 194.95 525.138 187.25C529.105 179.55 534.822 173.017 542.288 167.65C549.755 162.05 558.738 157.733 569.238 154.7C579.972 151.433 592.105 149.8 605.638 149.8ZM569.238 383.25C575.538 383.25 581.605 382.433 587.438 380.8C593.505 379.4 598.872 377.183 603.538 374.15C608.205 371.35 611.938 367.733 614.738 363.3C617.772 358.867 619.288 353.617 619.288 347.55C619.288 341.95 616.955 337.4 612.288 333.9C607.855 330.633 602.138 327.95 595.138 325.85C588.138 323.517 580.438 321.65 572.038 320.25C563.872 318.85 556.055 317.217 548.588 315.35C542.055 320.25 537.155 326.083 533.888 332.85C530.622 339.617 528.988 346.383 528.988 353.15C528.988 362.483 532.605 369.833 539.838 375.2C547.072 380.567 556.872 383.25 569.238 383.25ZM601.438 169.05C595.838 169.05 590.938 170.217 586.738 172.55C582.538 174.883 579.038 178.033 576.238 182C573.438 185.967 571.338 190.633 569.938 196C568.538 201.367 567.838 207.083 567.838 213.15C567.838 221.317 569.822 227.15 573.788 230.65C577.988 233.917 582.422 235.55 587.088 235.55C592.688 235.55 597.588 234.383 601.788 232.05C605.988 229.717 609.488 226.683 612.288 222.95C615.088 218.983 617.188 214.433 618.588 209.3C619.988 204.167 620.688 198.683 620.688 192.85C620.688 185.85 619.055 180.133 615.788 175.7C612.522 171.267 607.738 169.05 601.438 169.05ZM759.824 305.2C764.258 305.2 768.808 303.217 773.474 299.25C778.374 295.283 782.924 290.383 787.124 284.55C791.558 278.483 795.524 271.95 799.024 264.95C802.758 257.717 805.908 251.067 808.474 245L821.424 175.7C818.624 173.833 815.941 172.55 813.374 171.85C811.041 170.917 807.891 170.45 803.924 170.45C794.591 170.45 786.191 173.6 778.724 179.9C771.258 185.967 764.958 194.017 759.824 204.05C754.691 213.85 750.724 224.933 747.924 237.3C745.358 249.667 744.074 262.033 744.074 274.4C744.074 285.133 745.358 292.95 747.924 297.85C750.491 302.75 754.458 305.2 759.824 305.2ZM803.224 273.35C800.191 280.817 796.341 288.167 791.674 295.4C787.241 302.4 782.108 308.7 776.274 314.3C770.441 319.9 764.024 324.45 757.024 327.95C750.024 331.45 742.441 333.2 734.274 333.2C722.141 333.2 712.458 328.767 705.224 319.9C697.991 311.033 694.374 297.85 694.374 280.35C694.374 262.15 696.824 245.233 701.724 229.6C706.858 213.733 713.974 199.967 723.074 188.3C732.408 176.4 743.608 167.183 756.674 160.65C769.741 153.883 784.324 150.5 800.424 150.5C806.491 150.5 811.624 151.2 815.824 152.6C820.258 154 824.924 155.75 829.824 157.85C835.891 155.517 842.424 153.767 849.424 152.6C856.424 151.433 864.824 150.85 874.624 150.85L845.224 304.85H869.724V316.75C867.391 318.617 864.241 320.483 860.274 322.35C856.541 324.217 852.341 325.85 847.674 327.25C843.241 328.65 838.574 329.817 833.674 330.75C829.008 331.683 824.574 332.15 820.374 332.15C812.208 332.15 806.374 330.4 802.874 326.9C799.374 323.4 797.624 319.783 797.624 316.05C797.624 311.85 798.208 306.367 799.374 299.6C800.541 292.6 802.291 283.85 804.624 273.35H803.224ZM51.2 551.95V551.6L118.05 481.95C108.95 482.183 99.0333 481.833 88.3 480.9C77.8 479.733 66.95 478.217 55.75 476.35L39.65 501.55L27.75 499.45L32.65 450.1C34.05 441 40.7 436.45 52.6 436.45C57.2667 436.45 63.1 436.917 70.1 437.85C77.1 438.55 84.9167 439.483 93.55 440.65C102.417 441.817 111.867 442.983 121.9 444.15C132.167 445.083 142.783 445.9 153.75 446.6L162.85 436.8C166.117 437.033 169.5 438.667 173 441.7C176.5 444.5 178.483 447.883 178.95 451.85L66.25 569.45C78.15 572.017 89.7 575.283 100.9 579.25C112.1 582.983 122.6 587.533 132.4 592.9L155.85 569.8L167.4 574.7L152 624.05C150.833 627.55 148.5 630.467 145 632.8C141.733 635.133 137.767 636.3 133.1 636.3C128.2 636.3 122.25 634.783 115.25 631.75C108.483 628.717 100.783 625.217 92.15 621.25C83.5167 617.517 74.3 613.783 64.5 610.05C54.7 606.317 44.4333 603.75 33.7 602.35L17.25 619.15C15.3833 619.15 13.5167 618.683 11.65 617.75C9.78333 616.817 8.03333 615.65 6.4 614.25C4.76667 612.85 3.48333 611.217 2.55 609.35C1.38333 607.483 0.916666 605.5 1.15 603.4L51.2 551.95ZM192.871 461.3V449.4C196.371 448 201.037 446.6 206.871 445.2C212.704 443.567 218.887 442.167 225.421 441C231.954 439.833 238.371 438.9 244.671 438.2C251.204 437.267 256.921 436.8 261.821 436.8L268.121 441L236.621 591.85H261.121V603.75C258.087 605.85 254.471 607.833 250.271 609.7C246.304 611.567 241.987 613.2 237.321 614.6C232.887 616 228.337 617.05 223.671 617.75C219.004 618.683 214.571 619.15 210.371 619.15C201.504 619.15 195.321 617.517 191.821 614.25C188.554 610.75 186.921 607.017 186.921 603.05C186.921 598.383 187.271 593.833 187.971 589.4C188.671 584.967 189.604 580.067 190.771 574.7L214.571 466.2L192.871 461.3ZM221.921 382.55C221.921 374.617 224.604 368.433 229.971 364C235.337 359.567 242.104 357.35 250.271 357.35C259.137 357.35 266.137 359.567 271.271 364C276.637 368.433 279.321 374.617 279.321 382.55C279.321 390.017 276.637 395.967 271.271 400.4C266.137 404.833 259.137 407.05 250.271 407.05C242.104 407.05 235.337 404.833 229.971 400.4C224.604 395.967 221.921 390.017 221.921 382.55ZM412.92 516.25C414.553 509.017 415.953 502.6 417.12 497C418.52 491.4 419.22 485.567 419.22 479.5C419.22 475.533 418.286 472.15 416.42 469.35C414.786 466.317 411.753 464.8 407.32 464.8C402.886 464.8 398.22 466.55 393.32 470.05C388.653 473.317 383.986 477.517 379.32 482.65C374.886 487.55 370.686 493.033 366.72 499.1C362.986 505.167 359.953 510.767 357.62 515.9L336.62 616H288.32L318.42 465.85L297.77 461.3L298.47 449.4C301.736 447.767 305.936 446.25 311.07 444.85C316.203 443.217 321.803 441.817 327.87 440.65C333.936 439.483 340.12 438.55 346.42 437.85C352.953 437.15 359.136 436.8 364.97 436.8L371.97 441L361.12 492.1H362.87C367.07 484.4 371.97 477.167 377.57 470.4C383.17 463.633 389.12 457.8 395.42 452.9C401.72 448 408.37 444.15 415.37 441.35C422.37 438.317 429.486 436.8 436.72 436.8C446.52 436.8 454.22 439.95 459.82 446.25C465.42 452.55 468.22 460.95 468.22 471.45C468.22 476.817 467.636 483 466.47 490C465.303 496.767 463.903 503.533 462.27 510.3L443.02 591.85H468.22V603.75C465.886 605.617 462.736 607.483 458.77 609.35C455.036 611.217 450.836 612.85 446.17 614.25C441.736 615.65 437.07 616.817 432.17 617.75C427.27 618.683 422.603 619.15 418.17 619.15C410.236 619.15 404.403 617.633 400.67 614.6C397.17 611.567 395.42 608.067 395.42 604.1C395.42 599.2 396.003 593.95 397.17 588.35C398.336 582.75 399.503 577.383 400.67 572.25L412.92 516.25ZM634.431 577.85C631.865 582.517 628.131 587.417 623.231 592.55C618.331 597.45 612.615 602 606.081 606.2C599.548 610.167 592.315 613.433 584.381 616C576.448 618.8 568.165 620.2 559.531 620.2C538.765 620.2 522.548 614.6 510.881 603.4C499.448 591.967 493.731 575.867 493.731 555.1C493.731 539 496.298 523.833 501.431 509.6C506.565 495.367 513.681 482.883 522.781 472.15C532.115 461.183 543.081 452.55 555.681 446.25C568.515 439.95 582.515 436.8 597.681 436.8C611.681 436.8 623.231 440.067 632.331 446.6C641.431 452.9 645.981 461.65 645.981 472.85C645.981 488.717 638.048 501.783 622.181 512.05C606.548 522.317 581.115 528.733 545.881 531.3C545.181 534.567 544.598 537.95 544.131 541.45C543.898 544.717 543.781 547.867 543.781 550.9C543.781 564.2 547.165 574.467 553.931 581.7C560.698 588.7 569.331 592.2 579.831 592.2C584.265 592.2 588.698 591.5 593.131 590.1C597.565 588.7 601.765 586.833 605.731 584.5C609.931 582.167 613.665 579.717 616.931 577.15C620.431 574.35 623.465 571.667 626.031 569.1L634.431 577.85ZM589.631 456.75C581.698 456.75 573.998 461.067 566.531 469.7C559.298 478.333 553.231 492.917 548.331 513.45C565.598 512.983 579.481 509.133 589.981 501.9C600.715 494.667 606.081 485.217 606.081 473.55C606.081 468.883 604.798 464.917 602.231 461.65C599.898 458.383 595.698 456.75 589.631 456.75Z" fill="#030303"/>
</svg>
